HIERARCHY
ROOT Hips
{
	OFFSET	0.00	0.00	0.00
	CHANNELS 6 Xposition Yposition Zposition Zrotation Xrotation Yrotation
	JOINT LeftUpLeg
	{
		OFFSET	 0.126116	-0.065224	 0.014019
		CHANNELS 3 Zrotation Xrotation Yrotation
		JOINT LeftLeg
		{
			OFFSET	 0.000000	 0.569914	 0.000000
			CHANNELS 3 Zrotation Xrotation Yrotation
			JOINT LeftFoot
			{
				OFFSET	 0.000000	 0.544423	 0.000000
				CHANNELS 3 Zrotation Xrotation Yrotation
				JOINT LeftToeBase
				{
					OFFSET	 0.000000	 0.207117	 0.000000
					CHANNELS 3 Zrotation Xrotation Yrotation
					End Site
					{
						OFFSET	 0.000000	 0.207117	 0.000000
					}
				}
			}
		}
	}
	JOINT RightUpLeg
	{
		OFFSET	-0.124023	-0.065224	 0.008373
		CHANNELS 3 Zrotation Xrotation Yrotation
		JOINT RightLeg
		{
			OFFSET	 0.000000	 0.570047	 0.000000
			CHANNELS 3 Zrotation Xrotation Yrotation
			JOINT RightFoot
			{
				OFFSET	 0.000000	 0.544354	 0.000000
				CHANNELS 3 Zrotation Xrotation Yrotation
				JOINT RightToeBase
				{
					OFFSET	 0.000000	 0.207540	 0.000000
					CHANNELS 3 Zrotation Xrotation Yrotation
					End Site
					{
						OFFSET	 0.000000	 0.207540	 0.000000
					}
				}
			}
		}
	}
	JOINT Spine
	{
		OFFSET	 0.000184	 0.117403	 0.007763
		CHANNELS 3 Zrotation Xrotation Yrotation
		JOINT Spine1
		{
			OFFSET	 0.000000	 0.137269	 0.000000
			CHANNELS 3 Zrotation Xrotation Yrotation
			JOINT Spine2
			{
				OFFSET	 0.000000	 0.156879	 0.000000
				CHANNELS 3 Zrotation Xrotation Yrotation
				JOINT LeftShoulder
				{
					OFFSET	 0.080501	 0.160143	 0.002496
					CHANNELS 3 Zrotation Xrotation Yrotation
					JOINT LeftArm
					{
						OFFSET	 0.000000	 0.164363	 0.000000
						CHANNELS 3 Zrotation Xrotation Yrotation
						JOINT LeftForeArm
						{
							OFFSET	 0.000000	 0.364576	 0.000000
							CHANNELS 3 Zrotation Xrotation Yrotation
							JOINT LeftHand
							{
								OFFSET	 0.000000	 0.360812	 0.000000
								CHANNELS 3 Zrotation Xrotation Yrotation
								JOINT LeftHandIndex1
								{
									OFFSET	 0.000000	 0.086006	 0.000000
									CHANNELS 3 Zrotation Xrotation Yrotation
									JOINT LeftHandIndex2
									{
										OFFSET	 0.000000	 0.047237	 0.000000
										CHANNELS 3 Zrotation Xrotation Yrotation
										JOINT LeftHandIndex3
										{
											OFFSET	-0.004284	 0.038165	 0.000551
											CHANNELS 3 Zrotation Xrotation Yrotation
											End Site
											{
												OFFSET	-0.004284	 0.038165	 0.000551
											}
										}
									}
								}
							}
						}
					}
				}
				JOINT Neck
				{
					OFFSET	 0.000000	 0.176489	 0.000000
					CHANNELS 3 Zrotation Xrotation Yrotation
					JOINT Head
					{
						OFFSET	 0.000000	 0.077941	 0.001747
						CHANNELS 3 Zrotation Xrotation Yrotation
						End Site
						{
							OFFSET	 0.000000	 0.077941	 0.001747
						}
					}
				}
				JOINT RightShoulder
				{
					OFFSET	-0.080363	 0.159706	-0.000306
					CHANNELS 3 Zrotation Xrotation Yrotation
					JOINT RightArm
					{
						OFFSET	 0.000000	 0.164196	 0.000000
						CHANNELS 3 Zrotation Xrotation Yrotation
						JOINT RightForeArm
						{
							OFFSET	 0.000000	 0.365611	 0.000000
							CHANNELS 3 Zrotation Xrotation Yrotation
							JOINT RightHand
							{
								OFFSET	 0.000000	 0.360648	 0.000000
								CHANNELS 3 Zrotation Xrotation Yrotation
								JOINT RightHandIndex1
								{
									OFFSET	 0.000000	 0.069977	 0.000000
									CHANNELS 3 Zrotation Xrotation Yrotation
									JOINT RightHandIndex2
									{
										OFFSET	 0.000000	 0.052305	 0.000000
										CHANNELS 3 Zrotation Xrotation Yrotation
										JOINT RightHandIndex3
										{
											OFFSET	 0.009002	 0.042196	 0.000782
											CHANNELS 3 Zrotation Xrotation Yrotation
											End Site
											{
												OFFSET	 0.009002	 0.042196	 0.000782
											}
										}
									}
								}
							}
						}
					}
				}
			}
		}
	}
}
MOTION
Frames:    9
Frame Time: 0.03333334
-0.000655	 1.269389	-0.013803	-0.091758	 3.239100	 178.813700	-178.428100	 3.224309	-14.684750	 3.126172	-15.441940	 2.887508	-5.273126	 69.726080	 6.777746	 1.331492	 28.938720	-2.729976	 177.905400	 3.956075	 18.206480	-5.120757	-16.407570	-6.464172	 2.586975	 70.733750	-1.765884	-1.305360	 28.580650	 2.604635	-1.232073	 3.839284	 6.089461	-1.490278	 2.196230	 2.342815	-1.356644	 0.316828	-11.338550	-113.447100	 5.126344	 93.000120	 47.726870	 42.781390	 7.527202	 4.604902	-0.236351	-0.165659	-7.808889	-1.750126	 3.991827	-6.580301	 5.266122	 0.000000	 0.000000	 0.000000	 0.000000	 0.000000	 0.000000	 0.000000	 3.830395	-0.645170	-0.250272	 3.216711	 0.917350	-1.218079	 114.205700	-4.428077	-88.482700	-68.053960	-2.143135	 45.397900	-90.554570	-2.251657	-2.124954	-11.834970	-22.104180	-55.370910	-0.359781	 10.582440	 0.744568	 11.977790	 9.317307	-2.096065	-8.359142	 3.150335	 0.104224
-0.000298	 1.269207	-0.023913	-0.084921	 3.240167	 178.800000	-178.306300	 3.438280	-15.319940	 3.274132	-16.134810	 2.921592	-5.495440	 70.173930	 6.924721	 1.331492	 28.938720	-2.729976	 177.831300	 3.400835	 18.808140	-5.102930	-16.353640	-6.469262	 2.714944	 71.213800	-1.781457	-1.305364	 28.580670	 2.603574	-1.212863	 3.843394	 5.796124	-1.485830	 2.196064	 2.350015	-1.359099	 0.314894	-11.336230	-113.447100	 5.124084	 92.999620	 47.525570	 42.785930	 7.676591	 4.686193	-0.236549	-0.380114	-7.666362	-1.899728	 3.619649	-6.580301	 5.266122	 0.000000	 0.000000	 0.000000	 0.000000	 0.000000	 0.000000	 0.000000	 3.834055	-0.653570	-0.251412	 3.230491	 0.922155	-1.225954	 114.205000	-4.423615	-88.485940	-67.722110	-2.280702	 45.125310	-90.862220	-2.248472	-1.922209	-11.884670	-21.676610	-54.721080	-0.359780	 10.582420	 0.744568	 11.977790	 9.317286	-2.096060	-8.359142	 3.150324	 0.104225
 0.000081	 1.269026	-0.034101	-0.076544	 3.241474	 178.783200	-178.175600	 3.626642	-15.962450	 3.413567	-16.783200	 2.953531	-5.725315	 70.598520	 7.079371	 1.331492	 28.938720	-2.729976	 177.761300	 2.807883	 19.409920	-5.063771	-16.235080	-6.470751	 2.844564	 71.662230	-1.793088	-1.305369	 28.580700	 2.602267	-1.189186	 3.848338	 5.434464	-1.481508	 2.195265	 2.358541	-1.361532	 0.312674	-11.333350	-113.447100	 5.121305	 92.999010	 47.291850	 42.818780	 7.843914	 4.787250	-0.236840	-0.644300	-7.506674	-2.110432	 3.166857	-6.580301	 5.266122	 0.000000	 0.000000	 0.000000	 0.000000	 0.000000	 0.000000	 0.000000	 3.838565	-0.663917	-0.252816	 3.247466	 0.928082	-1.235681	 114.204200	-4.418116	-88.489910	-67.360940	-2.441040	 44.760580	-91.280740	-2.244404	-1.674150	-11.913760	-21.172530	-53.968830	-0.359780	 10.582390	 0.744568	 11.977790	 9.317259	-2.096055	-8.359142	 3.150309	 0.104227
 0.000480	 1.268847	-0.044234	-0.066789	 3.242940	 178.763600	-178.038800	 3.784580	-16.603680	 3.541403	-17.373720	 2.982178	-5.958242	 70.991410	 7.238412	 1.331492	 28.938720	-2.729976	 177.697600	 2.184571	 20.003980	-5.003396	-16.052010	-6.468630	 2.972436	 72.072310	-1.799252	-1.305375	 28.580740	 2.600731	-1.161421	 3.853973	 5.009284	-1.477571	 2.194187	 2.368299	-1.363916	 0.310103	-11.329970	-113.447200	 5.118065	 92.998300	 47.022850	 42.884930	 8.029449	 4.906590	-0.237212	-0.954676	-7.328359	-2.385862	 2.641069	-6.580301	 5.266122	 0.000000	 0.000000	 0.000000	 0.000000	 0.000000	 0.000000	 0.000000	 3.843864	-0.676075	-0.254465	 3.267416	 0.935033	-1.247078	 114.203300	-4.411672	-88.494580	-66.984210	-2.621442	 44.306080	-91.820310	-2.239449	-1.384434	-11.910930	-20.602000	-53.131200	-0.359779	 10.582360	 0.744568	 11.977790	 9.317226	-2.096048	-8.359141	 3.150292	 0.104228
 0.000907	 1.268669	-0.054442	-0.055467	 3.244875	 178.740700	-177.895100	 3.911212	-17.251740	 3.657987	-17.909040	 3.007089	-6.195776	 71.355130	 7.402665	 1.331492	 28.938720	-2.729976	 177.640700	 1.521287	 20.597490	-4.920230	-15.799260	-6.462874	 3.097855	 72.447660	-1.798056	-1.305382	 28.580780	 2.598947	-1.129208	 3.860280	 4.515161	-1.474523	 2.192084	 2.379230	-1.365941	 0.307644	-11.326020	-113.447300	 5.114277	 92.997470	 46.708360	 42.991440	 8.240044	 5.043974	-0.237570	-1.315039	-7.124651	-2.736222	 2.035875	-6.580301	 5.266122	 0.000000	 0.000000	 0.000000	 0.000000	 0.000000	 0.000000	 0.000000	 3.850018	-0.690197	-0.256379	 3.290594	 0.943081	-1.260296	 114.202200	-4.404175	-88.499990	-66.598400	-2.823622	 43.752840	-92.503360	-2.233307	-1.050221	-11.863430	-19.961800	-52.204770	-0.359777	 10.582320	 0.744568	 11.977790	 9.317189	-2.096040	-8.359140	 3.150272	 0.104230
 0.001366	 1.268493	-0.064678	-0.042598	 3.247042	 178.714600	-177.746300	 4.003764	-17.903470	 3.761535	-18.381650	 3.027619	-6.434560	 71.685050	 7.569325	 1.331492	 28.938720	-2.729976	 177.592300	 0.819449	 21.187810	-4.813469	-15.473830	-6.453513	 3.218003	 72.784310	-1.787777	-1.305390	 28.580820	 2.596921	-1.092592	 3.867113	 3.953676	-1.473061	 2.189289	 2.391127	-1.367302	 0.304899	-11.321580	-113.447300	 5.109995	 92.996540	 46.339380	 43.144210	 8.480658	 5.201360	-0.238021	-1.724442	-6.893143	-3.167783	 1.354927	-6.580301	 5.266122	 0.000000	 0.000000	 0.000000	 0.000000	 0.000000	 0.000000	 0.000000	 3.857008	-0.706236	-0.258551	 3.316920	 0.952251	-1.275395	 114.201000	-4.395658	-88.506160	-66.218120	-3.047985	 43.099600	-93.342920	-2.225840	-0.673129	-11.757360	-19.258010	-51.199840	-0.359776	 10.582280	 0.744568	 11.977790	 9.317146	-2.096032	-8.359139	 3.150250	 0.104232
 0.001861	 1.268320	-0.074955	-0.028320	 3.249295	 178.685500	-177.593700	 4.060410	-18.559310	 3.851022	-18.787940	 3.043011	-6.673191	 71.979340	 7.737081	 1.331492	 28.938720	-2.729976	 177.553800	 0.075549	 21.775520	-4.681251	-15.069240	-6.440555	 3.329344	 73.079340	-1.765370	-1.305399	 28.580870	 2.594650	-1.051545	 3.874394	 3.324224	-1.474232	 2.184506	 2.403990	-1.367400	 0.302494	-11.316560	-113.447400	 5.105187	 92.995500	 45.907050	 43.350380	 8.757241	 5.377764	-0.238610	-2.183217	-6.628549	-3.688415	 0.598462	-6.580301	 5.266122	 0.000000	 0.000000	 0.000000	 0.000000	 0.000000	 0.000000	 0.000000	 3.864842	-0.724218	-0.260983	 3.346444	 0.962524	-1.292324	 114.199600	-4.386100	-88.513080	-65.857650	-3.296893	 42.342540	-94.353770	-2.216651	-0.253186	-11.577450	-18.493060	-50.121430	-0.359774	 10.582230	 0.744568	 11.977790	 9.317100	-2.096022	-8.359138	 3.150225	 0.104235
 0.002389	 1.268151	-0.085174	-0.012656	 3.251845	 178.653500	-177.439800	 4.079461	-19.212690	 3.924885	-19.121870	 3.052581	-6.907437	 72.233750	 7.902478	 1.331492	 28.938720	-2.729976	 177.527200	-0.705730	 22.355210	-4.523562	-14.584680	-6.424229	 3.427920	 73.327490	-1.728814	-1.305409	 28.580930	 2.592157	-1.006578	 3.881879	 2.633378	-1.477951	 2.178030	 2.417350	-1.366366	 0.300498	-11.311070	-113.447500	 5.099900	 92.994330	 45.406890	 43.612920	 9.072695	 5.570836	-0.239097	-2.686599	-6.329178	-4.299115	-0.224234	-6.580301	 5.266122	 0.000000	 0.000000	 0.000000	 0.000000	 0.000000	 0.000000	 0.000000	 3.873441	-0.743955	-0.263650	 3.378859	 0.973782	-1.310911	 114.198000	-4.375633	-88.520650	-65.537590	-3.572019	 41.487300	-95.533130	-2.205507	 0.204957	-11.312240	-17.678040	-48.985200	-0.359773	 10.582170	 0.744568	 11.977790	 9.317046	-2.096012	-8.359138	 3.150197	 0.104237
 0.002956	 1.267986	-0.095357	 0.004312	 3.254517	 178.618600	-177.285800	 4.060392	-19.864810	 3.982731	-19.382420	 3.056009	-7.135132	 72.447940	 8.063249	 1.331492	 28.938720	-2.729976	 177.514000	-1.529930	 22.928240	-4.337613	-14.010320	-6.404583	 3.509769	 73.524570	-1.675046	-1.305419	 28.580990	 2.589441	-0.957700	 3.889438	 1.881866	-1.484923	 2.169752	 2.431561	-1.363859	 0.298809	-11.305060	-113.447600	 5.094158	 92.993070	 44.830000	 43.936170	 9.432636	 5.781510	-0.239827	-3.234620	-5.991506	-5.004473	-1.110078	-6.580301	 5.266122	 0.000000	 0.000000	 0.000000	 0.000000	 0.000000	 0.000000	 0.000000	 3.882805	-0.765450	-0.266551	 3.414167	 0.986015	-1.331122	 114.196400	-4.364207	-88.528910	-65.274760	-3.879040	 40.532750	-96.884030	-2.191982	 0.701195	-10.950070	-16.814790	-47.793720	-0.359771	 10.582120	 0.744568	 11.977790	 9.316990	-2.096000	-8.359137	 3.150167	 0.104240
